
		<svg xmlns="http://www.w3.org/2000/svg" xmlns:xlink="http://www.w3.org/1999/xlink" version="1.1" width="3300" height="3105">
			
			<g transform="scale(15) translate(10, 10)">
				<defs id="SvgjsDefs3334"/><g id="SvgjsG3335" featureKey="root" fill="#000"/><g id="SvgjsG3336" featureKey="symbol1" fill="#000" transform="matrix(1.2123416289027749,0,0,1.2123416289027749,42.12826576653655,3.9746617806230677)"><path d="M70.047,87.401h-1.5v-1.5V68.684c0-0.648-0.527-1.175-1.175-1.175H28.638c-0.648,0-1.175,0.527-1.175,1.175v17.217v1.5  H7.773v2.35h20.864h38.734h2.403h3.706h14.747v-2.35H73.208H70.047z M44.556,83.941l-1.061,1.061l-6.371-6.372l6.371-6.372  l1.061,1.061l-5.311,5.312L44.556,83.941z M46.919,84.692l-1.434-0.442l3.606-11.683l1.434,0.442L46.919,84.692z M52.515,85.002  l-1.061-1.061l5.312-5.312l-5.312-5.312l1.061-1.061l6.372,6.372L52.515,85.002z"/><path d="M33.371,66.009h29.504c-0.622-6.969-9.635-7.273-10.033-7.281l-0.46-0.01l-2.018-4.2c-0.713,0.205-1.463,0.321-2.242,0.321  c-0.778,0-1.528-0.116-2.241-0.321l-2.018,4.199l-0.46,0.011C43.006,58.737,33.994,59.058,33.371,66.009z"/><path d="M48.122,53.339c3.216,0,5.902-2.303,6.502-5.345c0.082-0.416,0.127-0.844,0.127-1.283c0-0.073-0.009-0.144-0.011-0.217  c-0.116-3.554-3.036-6.411-6.618-6.411c-3.582,0-6.501,2.857-6.617,6.411c-0.002,0.073-0.011,0.144-0.011,0.217  c0,0.439,0.045,0.868,0.127,1.283C42.221,51.036,44.906,53.339,48.122,53.339z"/><polygon points="7.554,31.874 21.006,18.421 7.554,4.97 6.493,6.03 18.885,18.421 6.493,30.813 "/><rect x="28.156" y="11.099" width="11.602" height="1.5"/><rect x="46.978" y="11.099" width="17.275" height="1.5"/><rect x="73.573" y="11.099" width="3.042" height="1.5"/><rect x="85.215" y="11.099" width="3.763" height="1.5"/><rect x="77.376" y="17.671" width="11.602" height="1.5"/><rect x="52.881" y="17.671" width="17.274" height="1.5"/><rect x="40.519" y="17.671" width="3.042" height="1.5"/><rect x="28.156" y="17.671" width="3.763" height="1.5"/><rect x="28.156" y="24.245" width="11.602" height="1.5"/><rect x="46.978" y="24.245" width="17.275" height="1.5"/><rect x="73.573" y="24.245" width="3.042" height="1.5"/><rect x="85.215" y="24.245" width="3.763" height="1.5"/><rect x="7.023" y="37.637" width="15.633" height="1.5"/><rect x="68.221" y="37.637" width="4.099" height="1.5"/><rect x="83.908" y="37.637" width="5.069" height="1.5"/><rect x="73.345" y="46.494" width="15.633" height="1.5"/><rect x="23.681" y="46.494" width="4.099" height="1.5"/><rect x="7.023" y="46.494" width="5.069" height="1.5"/><rect x="7.023" y="55.35" width="15.633" height="1.5"/><rect x="68.221" y="55.35" width="4.099" height="1.5"/><rect x="83.908" y="55.35" width="5.069" height="1.5"/></g><g id="SvgjsG3337" featureKey="text1" fill="#000" transform="matrix(1.7031796450273076,0,0,1.7031796450273076,0.6812728325781332,108.44749520618291)"><path d="M0.72 11.58 c1.9 0.06 3.88 0.06 5.78 0 l0 0.76 c-1.1 0.08 -1.48 0.24 -1.48 0.74 l0 8.38 c0 4.56 -2 6.06 -5.42 6.06 l0 -0.78 c1.66 0 2.6 -0.76 2.6 -3.62 l0 -10.04 c0 -0.5 -0.38 -0.66 -1.48 -0.74 l0 -0.76 z M30.938000000000002 12.34 c-1.1 0.08 -1.48 0.24 -1.48 0.74 l0 9.42 c0 0.5 0.38 0.66 1.48 0.74 l0 0.76 c-1.9 -0.06 -3.24 -0.06 -4.6 0 l0 -0.76 c0.18 -0.14 0.3 -0.28 0.3 -0.74 l0 -0.68 c-0.6 1.14 -1.72 2.38 -3.78 2.38 c-2.7 0 -4.2 -1.6 -4.2 -3.98 l0 -7.14 c0 -0.5 -0.38 -0.66 -1.48 -0.74 l0 -0.76 c1.9 0.06 3.9 0.06 5.8 0 l0 0.76 c-1.1 0.08 -1.48 0.24 -1.48 0.74 l0 7.12 c0 1.94 0.66 3.1 2.08 3.1 c1.5 0 2.48 -1.34 3.06 -2.58 l0 -7.64 c0 -0.5 -0.38 -0.66 -1.48 -0.74 l0 -0.76 c1.9 0.06 3.88 0.06 5.78 0 l0 0.76 z M48.956 11.58 c1.76 0.06 3.54 0.06 5.1 0 l0 0.76 c-1.1 0.1 -2 0.24 -2 0.74 l0 10.92 l-0.86 0 l-6.88 -9.96 l0 8.46 c0 0.5 0.9 0.64 2.2 0.74 l0 0.76 c-1.76 -0.06 -3.54 -0.06 -5.1 0 l0 -0.76 c1.1 -0.1 1.98 -0.24 1.98 -0.74 l0 -9.16 c0 -0.46 -0.68 -0.92 -1.78 -1 l0 -0.76 c1.44 0.06 2.88 0.06 4.32 0 l5.2 7.6 l0 -6.1 c0 -0.5 -0.88 -0.64 -2.18 -0.74 l0 -0.76 z M75.614 21.46 c0.48 1.26 0.78 1.68 2.1 1.78 l0 0.76 c-2.02 -0.06 -4.04 -0.06 -6.06 0 l0 -0.76 c1.18 -0.08 1.64 -0.24 1.34 -1.04 l-0.9 -2.42 l-3.74 0 l-0.8 2.42 c-0.26 0.8 0.58 0.96 1.98 1.04 l0 0.76 c-1.64 -0.06 -3.46 -0.06 -5.1 0 l0 -0.76 c1.4 -0.1 1.94 -0.42 2.26 -1.34 l3.52 -10.42 l1.64 0 z M68.63400000000001 18.98 l3.16 0 l-1.68 -4.48 z M92.592 22.5 c0 0.5 0.38 0.66 1.48 0.74 l0 0.76 c-1.9 -0.06 -3.88 -0.06 -5.78 0 l0 -0.76 c1.1 -0.08 1.48 -0.24 1.48 -0.74 l0 -9.42 c0 -0.5 -0.38 -0.66 -1.48 -0.74 l0 -0.76 c1.9 0.06 3.88 0.06 5.78 0 l0 0.76 c-1.1 0.08 -1.48 0.24 -1.48 0.74 l0 9.42 z M110.21000000000001 11.58 c3.92 0 6.7 1.72 6.7 6.2 c0 5.2 -3.88 6.22 -5.44 6.22 c-1.14 0 -2.2 -0.34 -3.6 -0.34 c-1.16 0 -1.96 0.18 -2.92 0.34 l0 -0.78 c1 -0.22 1.44 -0.38 1.44 -0.96 l0 -8.96 c0 -0.66 -0.34 -0.88 -1.32 -0.96 l0 -0.76 c1.94 0.08 3.4 0 5.14 0 z M110.79 23.2 c2.2 0.04 3 -2.28 3 -5.48 c0 -3.3 -1.18 -5.34 -3.62 -5.34 c-0.2 0 -0.52 0 -0.96 0.04 l0 10.02 c0 0.66 0.74 0.74 1.58 0.76 z "/></g><g id="SvgjsG3338" featureKey="text2" fill="#000" transform="matrix(1.687927754007221,0,0,1.687927754007221,-0.843964681870284,145.9939331035427)"><path d="M4.8 22.5 c0 0.5 0.38 0.66 1.48 0.74 l0 0.76 c-1.9 -0.06 -3.88 -0.06 -5.78 0 l0 -0.76 c1.1 -0.08 1.48 -0.24 1.48 -0.74 l0 -9.42 c0 -0.5 -0.38 -0.66 -1.48 -0.74 l0 -0.76 c1.9 0.06 3.88 0.06 5.78 0 l0 0.76 c-1.1 0.08 -1.48 0.24 -1.48 0.74 l0 9.42 z M26.058 20.88 c0.98 1.5 1.98 2.44 3 2.52 l-0.48 0.76 c-1.46 0 -3.18 -0.22 -4.78 -2.44 l-1.86 -2.54 l-0.06 0 l-0.46 0.06 l0 3.28 c0 0.5 0.34 0.64 1.44 0.72 l0 0.76 c-1.9 -0.06 -3.8 -0.06 -5.7 0 l0 -0.76 c1.1 -0.08 1.44 -0.22 1.44 -0.72 l0 -9.34 c0 -0.5 -0.34 -0.76 -1.32 -0.84 l0 -0.76 c1.94 0.08 3.9 0 5.04 0 c4.32 0 5.66 1.48 5.66 3.56 c0 1.46 -1.02 2.72 -3.42 3.48 z M21.418 12.38 l0 6.02 l0.4 -0.06 c2.5 -0.38 3.48 -1.54 3.48 -3.28 c0 -1.56 -0.82 -2.68 -2.54 -2.68 l-1.34 0 z M46.056000000000004 21.48 c0 -1.1 -0.78 -1.82 -2.62 -2.72 s-3.54 -1.88 -3.54 -4.12 c0 -2.04 1.7 -3.38 3.84 -3.38 c1.48 0 2.08 0.48 2.56 0.48 c0.24 0 0.42 -0.08 0.48 -0.32 l0.8 0 l0.16 2.88 l-0.5 -0.02 c-0.32 -0.02 -0.48 -0.1 -0.64 -0.44 c-0.54 -1.16 -1.44 -1.74 -2.4 -1.74 c-1.16 0 -1.82 0.78 -1.82 1.68 c0 1.18 0.86 1.78 2.32 2.46 c1.52 0.72 4.04 1.68 4.04 4.32 c0 2.58 -2.36 3.72 -4.12 3.72 c-1.8 0 -2.56 -0.78 -3.18 -0.78 c-0.46 0 -0.6 0.26 -0.66 0.5 l-0.84 0 l-0.2 -3.04 l0.66 0 c0.32 0 0.48 0.08 0.58 0.38 c0.42 1.26 1.72 2.04 3.1 2.04 c1.18 0 1.98 -0.74 1.98 -1.9 z M72.474 12.34 c-1.1 0.08 -1.48 0.24 -1.48 0.74 l0 9.42 c0 0.5 0.38 0.66 1.48 0.74 l0 0.76 c-1.9 -0.06 -3.88 -0.06 -5.78 0 l0 -0.76 c1.1 -0.08 1.48 -0.24 1.48 -0.74 l0 -4.32 l-4.26 0 l0 4.32 c0 0.5 0.38 0.66 1.48 0.74 l0 0.76 c-1.9 -0.06 -3.88 -0.06 -5.78 0 l0 -0.76 c1.1 -0.08 1.48 -0.24 1.48 -0.74 l0 -9.42 c0 -0.5 -0.38 -0.66 -1.48 -0.74 l0 -0.76 c1.9 0.06 3.88 0.06 5.78 0 l0 0.76 c-1.1 0.08 -1.48 0.24 -1.48 0.74 l0 4.3 l4.26 0 l0 -4.3 c0 -0.5 -0.38 -0.66 -1.48 -0.74 l0 -0.76 c1.9 0.06 3.88 0.06 5.78 0 l0 0.76 z M94.232 21.46 c0.48 1.26 0.78 1.68 2.1 1.78 l0 0.76 c-2.02 -0.06 -4.04 -0.06 -6.06 0 l0 -0.76 c1.18 -0.08 1.64 -0.24 1.34 -1.04 l-0.9 -2.42 l-3.74 0 l-0.8 2.42 c-0.26 0.8 0.58 0.96 1.98 1.04 l0 0.76 c-1.64 -0.06 -3.46 -0.06 -5.1 0 l0 -0.76 c1.4 -0.1 1.94 -0.42 2.26 -1.34 l3.52 -10.42 l1.64 0 z M87.25200000000001 18.98 l3.16 0 l-1.68 -4.48 z M112.17 11.58 c3.92 0 6.7 1.72 6.7 6.2 c0 5.2 -3.88 6.22 -5.44 6.22 c-1.14 0 -2.2 -0.34 -3.6 -0.34 c-1.16 0 -1.96 0.18 -2.92 0.34 l0 -0.78 c1 -0.22 1.44 -0.38 1.44 -0.96 l0 -8.96 c0 -0.66 -0.34 -0.88 -1.32 -0.96 l0 -0.76 c1.94 0.08 3.4 0 5.14 0 z M112.75 23.2 c2.2 0.04 3 -2.28 3 -5.48 c0 -3.3 -1.18 -5.34 -3.62 -5.34 c-0.2 0 -0.52 0 -0.96 0.04 l0 10.02 c0 0.66 0.74 0.74 1.58 0.76 z"/></g>
			</g>
		</svg>
	